PathFileType	4	(X/Y/Z)	OpenSim_Sub03_CSStiffKnee_Gyro.trc
DataRate	CameraRate	NumFrames	NumMarkers	Units	OrigDataRate	OrigDataStartFrame	OrigNumFrames
100	100	31	8	m	100	455	3637
Frame#	Time	torso_imu_offset_imu	pelvis_imu_offset_imu	tibia_r_imu_offset_imu	femur_r_imu_offset_imu	tibia_l_imu_offset_imu	femur_l_imu_offset_imu	toes_r_imu_offset_imu	toes_l_imu_offset_imu
				X1	Y1	Z1	X2	Y2	Z2	X3	Y3	Z3	X4	Y4	Z4	X5	Y5	Z5	X6	Y6	Z6	X7	Y7	Z7	X8		Y8	Z8	

455	4.54000000	0.06466500	-0.14867500	0.33522600	0.51495400	-0.00590100	0.03071600	0.91290200	1.20948400	2.26276300	0.52691200	-0.13488700	-0.24312800	0.32704000	0.05812000	0.58030700	0.25439700	-0.00124600	0.78592100	0.35716600	1.63256700	1.67778600	-0.07316000	-0.06872800	0.17615000
456	4.55000000	0.07192300	-0.13344500	0.34054500	0.45446400	0.00341700	0.01683700	0.89600100	1.06386900	2.10464500	0.81868500	-0.10823200	-0.22903000	0.26671000	0.06665100	0.61995400	0.21932600	0.01895500	0.83355700	0.35065200	1.59402200	1.53451100	-0.04950300	-0.09140300	0.17198800
457	4.56000000	0.08043800	-0.11144700	0.33305300	0.40753900	0.02817500	-0.00488700	0.91634900	0.99181700	1.82239200	1.04148300	-0.03333200	-0.20681900	0.24579400	0.08861300	0.63262200	0.14736100	0.01070200	0.85209800	0.34589700	1.47485500	1.38493500	-0.04521200	-0.10520800	0.18599600
458	4.57000000	0.08078000	-0.09302400	0.32493700	0.36489800	0.06733300	-0.02221500	0.78701200	0.87728700	1.56892600	1.08393700	-0.01520200	-0.17405200	0.23852700	0.09290000	0.63930600	0.09305100	0.03649800	0.87027800	0.32794300	1.25616300	1.22294200	-0.06687200	-0.14319600	0.19791800
459	4.58000000	0.08016700	-0.07758600	0.30643200	0.32291400	0.08841900	-0.04695100	0.66366500	0.72202700	1.28737700	0.98164500	-0.03240200	-0.13221300	0.29931200	0.09036300	0.67279700	0.04522800	0.05708200	0.85236700	0.28784500	1.06484900	1.06529500	-0.04145800	-0.17458700	0.21743000
460	4.59000000	0.07461600	-0.06253900	0.27862400	0.28882800	0.07655100	-0.07073800	0.62512000	0.59645000	0.97033100	0.83674000	-0.06706600	-0.08052400	0.26157000	0.11413300	0.73886900	0.00405200	0.07582500	0.81571500	0.29577700	0.88020900	0.83565100	-0.07515400	-0.23117500	0.23721400
461	4.60000000	0.06469200	-0.05643700	0.25207000	0.27580900	0.06529900	-0.09239500	0.54859900	0.37874100	0.68270100	0.70823300	-0.10588500	-0.00091700	0.21130700	0.13801400	0.78958800	0.03590900	0.07224300	0.77073600	0.28650400	0.62229600	0.53424700	-0.08379500	-0.25901700	0.25576700
462	4.61000000	0.06047500	-0.05464700	0.22205800	0.26435600	0.07381600	-0.09847900	0.45746100	0.18010800	0.34533700	0.63348600	-0.16806200	0.09635900	0.16959600	0.13772100	0.81606400	0.02936200	0.03307400	0.73887000	0.24334100	0.29729100	0.20614800	-0.09723300	-0.30885400	0.28118000
463	4.62000000	0.07281800	-0.05052500	0.20260600	0.23436200	0.08354700	-0.09632800	0.35988200	-0.01857400	0.00457300	0.63191100	-0.23462000	0.14777600	0.21063000	0.16053200	0.82500400	0.00176100	0.03478500	0.73865100	0.19728500	-0.05157200	-0.09369300	-0.12962400	-0.34901800	0.31164900
464	4.63000000	0.08598000	-0.03862600	0.18399200	0.19722100	0.08667800	-0.09715300	0.25802000	-0.21983300	-0.32233000	0.63607200	-0.27079300	0.17335100	0.21804400	0.16999800	0.87428200	-0.01801400	0.06625000	0.77194800	0.21084500	-0.54092600	-0.35497300	-0.14790300	-0.40286900	0.33515100
465	4.64000000	0.10140400	-0.01890500	0.14559000	0.18725700	0.07501900	-0.09582300	0.16516200	-0.41165400	-0.68555900	0.55812300	-0.26975800	0.16665300	0.25474700	0.20027300	0.90856200	-0.03041500	0.08352900	0.78932500	0.39413300	-1.23053900	-0.60142300	-0.16675700	-0.44957000	0.35443900
466	4.65000000	0.10932000	0.01472700	0.11213600	0.18581200	0.07120100	-0.08953600	0.22440300	-0.64030600	-1.10633600	0.41096000	-0.28093900	0.16119100	0.29339300	0.20992400	0.92324000	-0.06672600	0.07627500	0.81405900	0.73232000	-1.85105600	-0.74450700	-0.19367900	-0.51915300	0.36671200
467	4.66000000	0.10252900	0.06375300	0.11068400	0.18419300	0.10340100	-0.08381000	0.36015400	-0.86927600	-1.54617400	0.21678500	-0.31142200	0.16787100	0.33775700	0.25004700	0.92579500	-0.07203400	0.11561000	0.86698800	0.08019200	-2.18295100	-0.52120000	-0.21715400	-0.58427000	0.37903700
468	4.67000000	0.11873200	0.11094700	0.07823900	0.17122000	0.18788200	-0.05873300	0.34532200	-1.00530500	-1.75080000	0.02730900	-0.41360400	0.14483200	0.31584000	0.27510500	0.95657900	-0.04482100	0.13931000	0.89643200	0.07366700	-1.86761100	-0.33979800	-0.21910500	-0.67577500	0.36368600
469	4.68000000	0.13387700	0.13884900	0.06894600	0.06421200	0.28490800	-0.01976600	-0.18295700	-0.92602600	-1.35348700	-0.25449000	-0.53988900	0.04666800	0.27229900	0.30133800	1.01164300	-0.04062000	0.15637500	0.89911100	0.26169500	-1.91809900	-0.75227700	-0.17873200	-0.79934500	0.33049600
470	4.69000000	0.15041900	0.15131800	0.04042400	-0.10480800	0.30638100	0.07165500	0.23432400	-0.63614300	-1.12817900	-0.62601600	-0.56534100	0.09420100	0.24933100	0.35375600	1.05137600	-0.08766000	0.16703500	0.91739200	0.29608000	-2.20446400	-1.09483800	-0.12955000	-0.95903200	0.27428900
471	4.70000000	0.14461100	0.16558100	0.02066200	-0.29779000	0.25604500	0.17120000	1.45475200	-0.51786900	-1.39778000	-1.00722000	-0.47063300	0.35452200	0.29688000	0.39973000	1.09171100	-0.13876400	0.13795100	0.88790200	0.28071100	-1.77895500	-0.81431500	-0.02705600	-1.17165500	0.22435400
472	4.71000000	0.11119800	0.17545500	-0.00550900	-0.42249600	0.20056000	0.25963200	2.18862700	-0.55171200	-1.55074900	-1.10919800	-0.38177000	0.72770900	0.42659400	0.47963600	1.13971700	-0.17057200	0.15280100	0.84266500	0.65990700	-1.42339500	-0.46496000	0.06124600	-1.43177300	0.15773100
473	4.72000000	0.07869300	0.17817400	-0.03368900	-0.43051300	0.12577900	0.29097900	2.13940400	-0.66589500	-1.42050600	-0.78585100	-0.34582300	0.91374600	0.59990600	0.52679700	1.23557200	-0.17242000	0.20150900	0.77872900	0.74414700	-1.65940500	-0.28585100	0.22727500	-1.66537500	0.06766600
474	4.73000000	0.05601100	0.16671400	-0.05797400	-0.37492700	0.05254600	0.24611600	1.86422600	-0.68871400	-1.32993500	-0.17468100	-0.38147900	0.74814100	0.70302000	0.51034500	1.35487900	-0.11479200	0.23930600	0.66804200	0.79038000	-1.56404100	-0.21018200	0.25917600	-1.86556000	0.04640100
475	4.74000000	0.02495800	0.16382900	-0.07706400	-0.28942600	0.02705400	0.14067800	1.44953000	-0.69621100	-1.20559400	0.41196400	-0.58530500	0.23216900	0.63799600	0.54806500	1.42625400	0.04570300	0.30723400	0.49994700	0.57480300	-0.81709800	-0.22015600	0.31249800	-2.08523500	0.03747800
476	4.75000000	0.02518600	0.16179400	-0.08234000	-0.22467900	0.07306200	0.08729200	1.21013000	-0.67503600	-1.04950300	0.86391100	-0.63628500	-0.40530700	0.52024600	0.53618800	1.47448100	0.31475300	0.36766300	0.30647700	0.28891100	-0.43068800	-0.16572400	0.39251100	-2.23000800	0.05413400
477	4.76000000	0.03719600	0.16932500	-0.07495600	-0.22823000	0.14163500	0.08434000	0.75112300	-0.83388100	-0.92461600	0.61749900	-0.65631800	-0.92479300	0.43655700	0.52720000	1.58658800	0.58498800	0.43828200	0.11390400	0.28516500	-0.34201700	-0.03338900	0.39115500	-2.41806300	0.15549400
478	4.77000000	0.05440300	0.18814700	-0.07799600	-0.25188200	0.18673900	0.13692100	0.26937300	-0.86900300	-0.83672900	-0.07556000	-0.59909100	-1.22214900	0.38541900	0.46440400	1.74725300	0.74721900	0.46533100	-0.07238900	0.36866700	-0.15476400	-0.04571000	0.30920800	-2.59210500	0.36333700
479	4.78000000	0.07460700	0.19134100	-0.08106700	-0.29068600	0.20026700	0.19913800	0.33120600	-0.68531900	-0.68020600	-0.44434300	-0.60645000	-1.10022800	0.21183600	0.36117200	1.81760900	0.75267000	0.43623200	-0.27674700	0.26436700	-0.06415200	-0.03335300	0.15541800	-2.70977500	0.63875300
480	4.79000000	0.08561200	0.17807800	-0.08379800	-0.28731700	0.18276600	0.18642700	0.03324200	-0.77596300	-0.52730400	-0.46065800	-0.62096100	-0.85762300	-0.00916400	0.23500100	1.84879000	0.59817900	0.41215700	-0.47888800	0.13720600	-0.04354800	0.03838000	-0.06118300	-2.84622800	0.93422200
481	4.80000000	0.08280400	0.16381800	-0.08926500	-0.27485400	0.14174400	0.09316000	-0.16713200	-0.76088600	-0.54847100	-0.41212700	-0.56261100	-0.84557100	-0.25944600	0.10724300	1.89578200	0.33255200	0.42979600	-0.68652800	0.00838200	-0.08603600	0.10216000	-0.24947100	-2.90318200	1.24052200
482	4.81000000	0.08715600	0.13721700	-0.09006400	-0.24848100	0.09237300	-0.03650900	0.08315800	-0.61361900	-0.50145900	-0.41906800	-0.46308800	-0.97216800	-0.49309000	-0.04380000	1.98245900	-0.04634200	0.38645700	-0.87732300	-0.14131700	-0.06779600	0.17121400	-0.48232800	-2.95406200	1.43055900
483	4.82000000	0.08804300	0.09998800	-0.08155700	-0.20633000	0.05651200	-0.13884900	0.18367900	-0.59871100	-0.44234700	-0.56783500	-0.36601700	-1.01593000	-0.62295800	-0.15684000	2.09246400	-0.43285000	0.39209600	-1.02305900	-0.23947600	-0.11747900	0.24958500	-0.38984700	-2.88659800	1.56366500
484	4.83000000	0.10728600	0.06551500	-0.07508400	-0.16579000	0.03090400	-0.22148900	0.10006800	-0.53885500	-0.37789600	-0.82019500	-0.29772300	-1.07323000	-0.65241000	-0.21301900	2.16439900	-0.66987700	0.39958100	-1.15257700	-0.31869100	-0.13631300	0.25356700	-0.49500700	-2.82286400	1.56604900
485	4.84000000	0.12841800	0.01994700	-0.05183600	-0.13458100	0.00562800	-0.27303900	0.10645400	-0.43026000	-0.30323100	-0.95555500	-0.26016600	-1.20128300	-0.54856100	-0.28287700	2.20915000	-0.91758500	0.34224400	-1.26572800	-0.34183600	-0.14869600	0.29634500	-0.52981100	-2.75363300	1.59707200
